<svg width="392" height="243" viewBox="0 0 392 243" fill="none" xmlns="http://www.w3.org/2000/svg">
<path fill-rule="evenodd" clip-rule="evenodd" d="M89.228 0.575126L88.2685 0L87.3091 0.575126L85.774 2.3005L84.4307 4.21759L82.5119 6.90151L79.0579 12.0776L76.3715 16.2952L70.6148 24.9221L66.3933 31.0568L61.0204 39.1085L58.9096 42.3676L56.0313 46.7769L53.153 50.9945L51.6179 53.295L48.7396 57.5126L46.8207 60.3882L43.5586 65.3726L41.064 69.2068L37.9938 73.6161L30.7021 84.5434L28.2075 88.3776L25.5211 92.4035L24.1779 94.3206L21.1077 98.9216L19.7645 100.839L15.5429 107.165L13.4322 110.424L11.5133 113.3L8.82685 117.709L6.14042 122.31L4.22154 126.528L2.30266 131.704L1.34322 134.771L0.383776 140.139L0 144.932V147.424L0.383776 152.6L1.15133 156.818L3.07021 163.719L4.60531 167.553L6.90797 172.346L9.01874 175.988L11.5133 179.439L13.4322 181.74L15.1592 183.848L16.6943 185.382L19.3807 187.683L21.2996 189.216L24.3698 191.325L28.0157 193.242L31.8534 194.968L35.6912 196.31L39.7208 197.46L43.5586 198.035L48.9315 198.418L55.2638 198.227L61.2123 197.46L65.2419 197.076L65.0501 198.035L63.7068 201.677L61.9798 204.936L59.2934 209.154L56.7989 212.413L55.4557 213.755L52.5773 216.247L49.5071 218.548L46.4369 220.273L40.8722 222.957L35.6912 224.682L28.5913 226.216H25.9049L24.9454 226.024L25.3292 225.066L26.4806 222.574L29.3589 217.206L32.0453 212.605L32.2372 211.263L31.8534 211.071L24.7536 208.962L21.8752 207.62L20.1482 206.087L19.3807 205.895L18.805 206.278L18.0375 207.429L16.1186 210.879L13.6241 215.289L12.0889 217.973L9.5944 222.574L6.90797 227.175L5.18098 230.242L4.02965 232.159L2.11077 235.61L0.575664 238.677L0.191888 240.402L0.95944 241.553L2.68643 242.128H11.5133L17.2699 241.936L25.9049 241.169L31.0859 240.402L37.6101 239.061L43.5586 237.335L48.1639 235.61L52.3854 233.693L55.8394 231.776L58.5259 230.05L60.4447 228.517L63.1312 226.408L65.6257 224.107L66.9689 222.574L69.0797 220.273L71.1905 217.589L73.1094 214.714L74.6445 212.221L76.1796 208.962L78.0984 204.553L80.0173 198.802L81.5524 192.859L82.5119 187.299V182.315L82.32 179.439L81.5524 179.056L79.2498 179.247L73.8769 180.973L69.2716 182.315L64.2825 183.273L59.8691 183.657H56.2232L52.0017 183.465L50.4666 183.273L49.3152 182.89V182.315L50.2747 180.398L52.9611 175.797L55.8394 170.621L58.334 166.211L60.061 163.144L62.7474 158.351L64.6663 155.092L67.5446 149.916L70.231 145.315L72.7256 141.097L75.412 136.305L76.9471 133.621L79.2498 129.403L81.9362 124.802L83.8551 121.351L85.3902 118.668L86.5415 117.134L87.8847 115.984H89.0361L89.9955 116.75L91.7225 119.434L93.6414 122.693L95.5603 126.144L100.933 135.538L103.811 140.522L106.69 145.698L109.184 150.108L111.295 153.75L116.668 163.144L118.779 166.786L121.465 171.579L123.96 175.797L126.262 180.014L127.606 183.082L126.454 183.273L122.808 183.657H118.395L113.022 183.273L108.417 182.507L104.387 181.548L97.8629 179.439L95.3684 179.056L94.6008 179.823L93.6414 181.74V183.657L94.4089 188.641L95.5603 194.584L97.2872 200.719L98.6305 204.553L100.166 208.195L102.468 212.605L104.387 215.864L106.69 219.123L108.992 221.807L110.336 223.34L111.871 224.874L113.406 226.216L115.325 227.941L117.819 229.859L121.465 232.159L124.727 233.884L129.716 236.185L134.514 237.91L138.735 239.061L145.067 240.402L152.167 241.361L159.075 241.936L164.832 242.128H171.932L175.194 241.744L176.537 241.169V239.827L175.961 238.102L174.81 235.801L172.124 231.2L169.245 226.024L163.489 216.055L160.994 211.646L159.267 208.004L158.5 206.47L157.732 206.087L155.046 207.429L150.056 209.537L145.451 210.879L144.492 211.454L144.684 212.413L147.37 217.014L150.056 222.19L151.016 224.491L151.4 226.408L147.754 226.024L141.422 224.682L135.473 222.765L131.635 221.04L128.565 219.315L125.687 217.397L123 215.289L121.273 213.563L119.546 211.646L118.011 209.729L115.9 206.662L113.022 201.102L111.679 197.076L112.446 197.268L121.465 198.227H130.868L134.897 197.651L139.886 196.501L145.067 194.776L147.754 193.626L150.824 192.092L153.702 190.367L156.964 188.066L159.075 186.341L162.145 183.273L163.872 181.165L165.791 178.672L167.902 175.605L170.397 171.196L171.932 167.937L173.659 163.719L175.002 158.735L175.961 153.75L176.537 148.382V142.439L176.153 139.18L175.194 134.388L173.659 129.403L171.548 124.227L168.67 118.668L166.367 115.025L162.721 109.466L157.156 101.222L155.621 98.9216L150.056 90.6781L144.492 82.243L141.997 78.4088L136.432 70.1653L116.092 39.6837L111.295 32.3987L105.73 24.1553L101.701 18.2123L95.5603 9.0103L93.0657 5.55955L90.9549 2.49221L89.228 0.575126ZM89.0361 25.8806L87.8847 25.6889L85.9659 27.606L84.4307 29.7148L80.4011 35.6578L77.3309 40.2588L75.6039 42.751L73.685 45.8183L72.1499 47.9271L70.231 50.9945L67.9284 54.2535L66.2014 56.9374L64.6663 59.0462L62.3636 62.6887L59.1015 67.6731L49.1233 82.6264L45.0937 88.5693L38.5695 98.3465L35.6912 102.564L34.348 104.673L32.621 107.165L30.3183 110.808L28.3994 113.683L26.2887 116.942L24.3698 119.818L22.8347 122.31L20.9158 125.569L18.9969 129.212L16.6943 134.388L15.351 139.755L14.5835 144.165L14.3916 148.191L14.9673 152.408L15.9267 156.434L17.4618 161.035L18.9969 164.486L20.532 167.17L23.0266 170.429L26.2887 173.688L28.3994 175.413L30.5102 176.947L33.0047 178.289L33.9642 178.481L34.5399 178.097L36.8425 174.838L39.7208 169.854L41.4478 166.978L43.5586 163.144L45.4775 159.885L47.5882 156.051L49.8909 152.025L52.5773 147.232L54.3043 144.357L56.7989 139.947L59.6772 134.963L61.2123 132.279L64.0906 127.103L66.3933 123.077L68.8878 118.668L72.1499 113.108L74.4526 109.082L76.3715 105.44L79.0579 100.839L81.1686 97.1962L84.047 91.8284L85.9659 88.5693L87.6928 86.6522L88.6523 86.4605L89.8036 87.4191L91.7225 90.4864L94.0252 94.3206L96.5197 98.7299L98.8223 102.756L101.509 107.548L107.265 117.517L112.638 126.719L118.395 137.072L121.081 141.673L123.96 146.849L126.454 151.066L128.565 154.709L130.868 158.926L133.554 163.527L136.624 168.895L138.543 172.346L140.846 176.372L142.189 177.905L143.148 178.481L144.3 178.097L147.562 175.988L150.056 174.071L152.743 171.387L155.237 168.512L157.54 165.253L158.883 162.569L160.227 158.735L161.378 154.517L162.145 148.958V145.507L161.954 143.398L161.378 139.947L160.035 134.771L158.5 130.937L155.813 125.761L153.51 121.735L151.208 118.092L145.643 109.657L141.422 103.331L138.543 99.1133L135.089 93.9372L131.06 87.8025L119.93 71.1239L118.203 68.4399L115.133 64.0306L103.62 46.7769L101.893 44.093L92.6819 30.2899L90.1874 26.8392L89.0361 25.8806Z" fill="#5FDC00"/>
<path d="M231.081 153.829C233.54 153.829 235.529 153.395 237.048 152.527C238.567 151.659 239.652 150.104 240.303 147.862C241.026 145.547 241.316 142.22 241.171 137.881H274.479C274.623 147.573 272.815 155.71 269.054 162.292C265.365 168.801 260.302 173.72 253.865 177.047C247.427 180.302 240.122 181.929 231.949 181.929C223.993 181.929 217.049 180.772 211.118 178.457C205.187 176.07 200.233 172.562 196.254 167.933C192.349 163.304 189.419 157.554 187.466 150.683C185.514 143.812 184.537 135.819 184.537 126.706V115.531C184.537 106.417 185.514 98.4249 187.466 91.5536C189.419 84.61 192.349 78.8236 196.254 74.1946C200.233 69.5655 205.151 66.0937 211.01 63.7792C216.941 61.3923 223.848 60.1989 231.732 60.1989C240.267 60.1989 247.753 61.8624 254.19 65.1896C260.628 68.5167 265.654 73.6521 269.271 80.5957C272.887 87.5393 274.623 96.4358 274.479 107.285H241.171C241.316 102.801 241.062 99.1843 240.411 96.4358C239.833 93.615 238.784 91.5898 237.265 90.3602C235.746 89.0582 233.613 88.4073 230.864 88.4073C228.188 88.4073 226.126 88.9136 224.68 89.9262C223.233 90.9388 222.185 92.53 221.534 94.6999C220.883 96.8698 220.485 99.6906 220.34 103.162C220.268 106.562 220.232 110.685 220.232 115.531V126.706C220.232 131.624 220.304 135.819 220.449 139.291C220.593 142.763 220.991 145.584 221.642 147.753C222.293 149.851 223.342 151.406 224.788 152.419C226.307 153.359 228.405 153.829 231.081 153.829Z" fill="#5FDC00"/>
<path d="M339.9 181.929C331.51 181.929 324.024 180.772 317.442 178.457C310.933 176.143 305.472 172.743 301.06 168.259C296.648 163.702 293.284 158.169 290.97 151.659C288.727 145.15 287.606 137.7 287.606 129.309V116.507C287.606 107.104 288.583 98.895 290.536 91.8791C292.561 84.8631 295.563 79.0406 299.541 74.4116C303.519 69.7102 308.582 66.166 314.73 63.7792C320.878 61.3923 328.111 60.1989 336.429 60.1989C343.734 60.1989 350.207 61.2838 355.849 63.4537C361.563 65.6235 366.373 68.9869 370.279 73.5436C374.257 78.028 377.295 83.7782 379.392 90.7941C381.49 97.7378 382.539 105.983 382.539 115.531V132.564H300.951V109.672H347.712V105.658C347.784 100.884 347.35 97.2676 346.41 94.8084C345.542 92.3492 344.24 90.6856 342.504 89.8177C340.768 88.8774 338.635 88.4073 336.103 88.4073C333.138 88.4073 330.787 88.9136 329.051 89.9262C327.315 90.9388 326.049 92.53 325.254 94.6999C324.458 96.8698 323.916 99.763 323.626 103.379C323.409 106.996 323.301 111.372 323.301 116.507V129.309C323.301 134.373 323.699 138.495 324.494 141.678C325.362 144.86 326.592 147.319 328.183 149.055C329.847 150.791 331.836 152.021 334.15 152.744C336.537 153.395 339.249 153.721 342.287 153.721C346.627 153.721 350.858 152.997 354.981 151.551C359.104 150.032 362.612 147.573 365.505 144.173L380.043 166.306C378.09 168.837 375.197 171.333 371.364 173.792C367.53 176.179 362.973 178.132 357.693 179.651C352.413 181.17 346.482 181.929 339.9 181.929Z" fill="#5FDC00"/>
</svg>
